<svg xmlns="http://www.w3.org/2000/svg" viewBox="0 0 1200 700" role="img" aria-label="Tempio al crepuscolo, illustrazione vettoriale">
  <defs>
    <!-- Sky gradients -->
    <linearGradient id="sky" x1="0" y1="0" x2="0" y2="1">
      <stop offset="0%" stop-color="#0b1026"></stop>
      <stop offset="45%" stop-color="#22265a"></stop>
      <stop offset="75%" stop-color="#5a2b5f"></stop>
      <stop offset="100%" stop-color="#b86a4e"></stop>
    </linearGradient>

    <radialGradient id="moonGlow" cx="78%" cy="22%" r="20%">
      <stop offset="0%" stop-color="#ffffff" stop-opacity="0.9"></stop>
      <stop offset="35%" stop-color="#dbe7ff" stop-opacity="0.35"></stop>
      <stop offset="100%" stop-color="#9fb3ff" stop-opacity="0"></stop>
    </radialGradient>

    <!-- Mist / haze -->
    <linearGradient id="mist" x1="0" y1="0" x2="0" y2="1">
      <stop offset="0%" stop-color="#f3d7c8" stop-opacity="0.00"></stop>
      <stop offset="55%" stop-color="#f3d7c8" stop-opacity="0.14"></stop>
      <stop offset="100%" stop-color="#f3d7c8" stop-opacity="0.35"></stop>
    </linearGradient>

    <!-- Temple shading -->
    <linearGradient id="stone" x1="0" y1="0" x2="1" y2="1">
      <stop offset="0%" stop-color="#0a0f1f"></stop>
      <stop offset="55%" stop-color="#151a2f"></stop>
      <stop offset="100%" stop-color="#2a2240"></stop>
    </linearGradient>

    <linearGradient id="rimLight" x1="0" y1="0" x2="1" y2="0">
      <stop offset="0%" stop-color="#ffcf9b" stop-opacity="0"></stop>
      <stop offset="55%" stop-color="#ffcf9b" stop-opacity="0.22"></stop>
      <stop offset="100%" stop-color="#ffcf9b" stop-opacity="0.55"></stop>
    </linearGradient>

    <!-- Warm inner glow -->
    <radialGradient id="innerGlow" cx="50%" cy="52%" r="45%">
      <stop offset="0%" stop-color="#ffd7a6" stop-opacity="0.75"></stop>
      <stop offset="45%" stop-color="#ff9f6a" stop-opacity="0.22"></stop>
      <stop offset="100%" stop-color="#ff6a3d" stop-opacity="0"></stop>
    </radialGradient>

    <!-- Subtle grain via turbulence (still lightweight) -->
    <filter id="grain" x="-10%" y="-10%" width="120%" height="120%">
      <feTurbulence type="fractalNoise" baseFrequency="0.9" numOctaves="2" stitchTiles="stitch"></feTurbulence>
      <feColorMatrix type="matrix" values="
        1 0 0 0 0
        0 1 0 0 0
        0 0 1 0 0
        0 0 0 0.07 0"></feColorMatrix>
    </filter>

    <!-- Soft blur for glow -->
    <filter id="blur2" x="-20%" y="-20%" width="140%" height="140%">
      <feGaussianBlur stdDeviation="6"></feGaussianBlur>
    </filter>
  </defs>

  <!-- Background sky -->
  <rect width="1200" height="700" fill="url(#sky)"></rect>

  <!-- Moon + glow -->
  <circle cx="940" cy="150" r="54" fill="#f5f8ff" opacity="0.95"></circle>
  <circle cx="940" cy="150" r="160" fill="url(#moonGlow)"></circle>

  <!-- Stars (few, subtle) -->
  <g opacity="0.55">
    <circle cx="120" cy="110" r="2" fill="#dbe7ff"></circle>
    <circle cx="210" cy="70" r="1.5" fill="#dbe7ff"></circle>
    <circle cx="370" cy="140" r="1.5" fill="#dbe7ff"></circle>
    <circle cx="520" cy="90" r="2" fill="#dbe7ff"></circle>
    <circle cx="680" cy="130" r="1.5" fill="#dbe7ff"></circle>
    <circle cx="820" cy="80" r="1.5" fill="#dbe7ff"></circle>
    <circle cx="1040" cy="110" r="2" fill="#dbe7ff"></circle>
  </g>

  <!-- Distant mountains -->
  <path d="M0,430 C140,360 260,390 360,345 C470,295 610,330 710,300 C830,265 930,320 1030,290 C1125,255 1180,280 1200,270 L1200,700 L0,700 Z" fill="#120f2a" opacity="0.9"></path>
  <path d="M0,470 C150,410 300,455 420,410 C560,360 710,420 820,380 C950,335 1040,415 1200,360 L1200,700 L0,700 Z" fill="#0d0c20" opacity="0.95"></path>

  <!-- Mist layer -->
  <rect y="420" width="1200" height="280" fill="url(#mist)"></rect>

  <!-- Temple group -->
  <g transform="translate(0,0)">
    <!-- Base shadow -->
    <ellipse cx="610" cy="610" rx="420" ry="70" fill="#070814" opacity="0.55" filter="url(#blur2)"></ellipse>

    <!-- Main silhouette -->
    <path d="M360,610
             L420,430
             L520,430
             L560,360
             L660,360
             L700,430
             L800,430
             L860,610
             Z" fill="url(#stone)"></path>

    <!-- Roof -->
    <path d="M470,430
             L610,310
             L750,430
             L705,430
             L610,350
             L515,430
             Z" fill="#0b0e1c" opacity="0.98"></path>

    <!-- Columns -->
    <g opacity="0.98">
      <rect x="450" y="450" width="36" height="150" rx="6" fill="#0a0f1f"></rect>
      <rect x="520" y="450" width="36" height="150" rx="6" fill="#0a0f1f"></rect>
      <rect x="590" y="450" width="36" height="150" rx="6" fill="#0a0f1f"></rect>
      <rect x="660" y="450" width="36" height="150" rx="6" fill="#0a0f1f"></rect>
      <rect x="730" y="450" width="36" height="150" rx="6" fill="#0a0f1f"></rect>
    </g>

    <!-- Inner doorway + glow -->
    <path d="M560,610
             L560,490
             C560,455 585,430 610,430
             C635,430 660,455 660,490
             L660,610
             Z" fill="#090a14"></path>
    <path d="M570,610
             L570,500
             C570,472 590,452 610,452
             C630,452 650,472 650,500
             L650,610
             Z" fill="url(#innerGlow)" opacity="0.95"></path>
    <ellipse cx="610" cy="560" rx="120" ry="80" fill="url(#innerGlow)" filter="url(#blur2)" opacity="0.55"></ellipse>

    <!-- Rim light on right side -->
    <path d="M800,430 L860,610 L835,610 L780,430 Z" fill="url(#rimLight)"></path>
    <path d="M750,430 L610,310 L625,310 L762,430 Z" fill="url(#rimLight)" opacity="0.65"></path>

    <!-- Foreground steps -->
    <path d="M300,610 L920,610 L960,660 L260,660 Z" fill="#070814" opacity="0.95"></path>
    <path d="M330,610 L890,610 L920,645 L300,645 Z" fill="#0a0c1a" opacity="0.9"></path>
  </g>

  <!-- Vignette -->
  <radialGradient id="vignette" cx="50%" cy="55%" r="75%">
    <stop offset="60%" stop-color="#000000" stop-opacity="0"></stop>
    <stop offset="100%" stop-color="#000000" stop-opacity="0.45"></stop>
  </radialGradient>
  <rect width="1200" height="700" fill="url(#vignette)"></rect>

  <!-- Subtle grain overlay -->
  <rect width="1200" height="700" filter="url(#grain)" opacity="0.55"></rect>
</svg>
